<?xml version="1.0" encoding="iso-8859-1"?>
<!-- Generator: Adobe Illustrator 23.0.5, SVG Export Plug-In . SVG Version: 6.00 Build 0)  -->
<svg version="1.1" xmlns="http://www.w3.org/2000/svg" xmlns:xlink="http://www.w3.org/1999/xlink" x="0px" y="0px"
	 viewBox="0 0 492 492" style="enable-background:new 0 0 492 492;" xml:space="preserve">
<g id="Master_Layer_2">
</g>
<g id="Layer_1">
	<g>
		<g>
			<g>
				<g>
					<g>
						<path style="fill-rule:evenodd;clip-rule:evenodd;fill:#212121;" d="M424.906,427.784H67.595c-3.12,0-5.664-2.544-5.664-5.664
							l0-246.119c0-3.12,2.544-5.664,5.664-5.664H424.93c3.12,0,5.664,2.544,5.664,5.664V422.12
							C430.57,425.24,428.026,427.784,424.906,427.784L424.906,427.784z M73.234,416.456h346.008V181.664H73.234V416.456z"/>
					</g>
				</g>
				<g>
					<g>
						<g>
							<path style="fill-rule:evenodd;clip-rule:evenodd;fill:#212121;" d="M226.522,381.248c-6.84,0-13.608-2.208-19.368-6.528
								c-9.336-6.984-14.064-18.048-12.672-29.592c0.72-5.88,2.616-11.544,5.688-16.848l14.136-24.48
								c6.672-11.544,18.6-18.456,31.944-18.456c13.344,0,25.272,6.888,31.944,18.456l14.136,24.48
								c3.072,5.304,4.968,10.968,5.688,16.848c1.392,11.544-3.336,22.608-12.672,29.592c-9.384,7.032-21.432,8.472-32.184,3.864
								c-4.392-1.872-9.408-1.872-13.8,0C235.187,380.384,230.842,381.248,226.522,381.248L226.522,381.248z M246.25,296.672
								c-9.24,0-17.52,4.776-22.152,12.792l0,0l-14.136,24.48c-2.304,3.984-3.72,8.184-4.248,12.552
								c-0.912,7.488,2.16,14.64,8.232,19.176c6.12,4.584,13.944,5.52,20.952,2.52c7.224-3.096,15.48-3.096,22.704,0
								c7.008,3,14.832,2.064,20.952-2.52c6.048-4.536,9.12-11.712,8.232-19.176c-0.528-4.344-1.944-8.568-4.248-12.552
								l-14.136-24.48C263.77,301.448,255.49,296.672,246.25,296.672L246.25,296.672z M219.203,306.632L219.203,306.632
								L219.203,306.632z"/>
						</g>
					</g>
					<g>
						<g>
							<g>
								<g>
									<path style="fill-rule:evenodd;clip-rule:evenodd;fill:#212121;" d="M180.227,313.64c-4.296,0-8.736-1.488-12.792-4.392
										c-5.424-3.864-9.768-9.912-12.288-17.016c-2.52-7.104-2.904-14.544-1.128-20.976c1.944-7.032,6.456-12.264,12.384-14.352
										c5.904-2.088,12.72-0.84,18.648,3.408c5.424,3.864,9.768,9.912,12.288,17.016c2.52,7.104,2.904,14.544,1.128,20.976
										c-1.944,7.032-6.456,12.264-12.384,14.352C184.211,313.304,182.242,313.64,180.227,313.64L180.227,313.64z M172.331,267.2
										c-0.696,0-1.44,0.096-2.136,0.36c-3.264,1.152-4.68,4.704-5.256,6.72c-1.152,4.152-0.816,9.312,0.888,14.184
										c1.704,4.872,4.704,9.096,8.208,11.592c1.704,1.224,5.04,3.096,8.304,1.944s4.68-4.704,5.256-6.72
										c1.152-4.152,0.816-9.312-0.888-14.184c-1.704-4.872-4.704-9.096-8.208-11.592
										C177.155,268.544,174.826,267.2,172.331,267.2z"/>
								</g>
							</g>
							<g>
								<g>
									<path style="fill-rule:evenodd;clip-rule:evenodd;fill:#212121;" d="M222.058,274.64c-4.296,0-8.736-1.488-12.792-4.392
										c-5.424-3.864-9.768-9.912-12.288-17.016c-2.52-7.104-2.904-14.544-1.128-20.976c1.944-7.032,6.456-12.264,12.384-14.352
										c5.904-2.088,12.72-0.84,18.648,3.408c5.424,3.864,9.768,9.912,12.288,17.016h0c2.52,7.104,2.904,14.544,1.128,20.976
										c-1.944,7.032-6.456,12.264-12.384,14.352C226.043,274.328,224.074,274.64,222.058,274.64L222.058,274.64z M214.163,228.2
										c-0.696,0-1.44,0.096-2.136,0.36c-3.264,1.152-4.68,4.704-5.256,6.72c-1.152,4.152-0.816,9.312,0.888,14.184
										c1.728,4.872,4.704,9.096,8.208,11.592c1.704,1.224,5.04,3.096,8.304,1.944s4.68-4.704,5.256-6.72
										c1.152-4.152,0.816-9.312-0.888-14.184h0c-1.728-4.872-4.704-9.096-8.208-11.592
										C218.987,229.544,216.658,228.2,214.163,228.2z"/>
								</g>
							</g>
						</g>
						<g>
							<g>
								<g>
									<path style="fill-rule:evenodd;clip-rule:evenodd;fill:#212121;" d="M312.274,313.64c-2.016,0-3.984-0.336-5.856-0.984
										c-5.904-2.088-10.416-7.32-12.384-14.352c-1.776-6.408-1.368-13.872,1.128-20.976l0,0
										c2.52-7.104,6.864-13.152,12.288-17.016c5.928-4.248,12.744-5.496,18.648-3.408c5.904,2.088,10.416,7.32,12.384,14.352
										c1.776,6.408,1.368,13.872-1.128,20.976c-2.52,7.104-6.864,13.152-12.288,17.016
										C321.01,312.128,316.57,313.64,312.274,313.64L312.274,313.64z M305.818,281.096c-1.728,4.872-2.04,10.032-0.888,14.184
										c0.552,2.016,1.992,5.568,5.256,6.72s6.6-0.72,8.304-1.944c3.504-2.496,6.48-6.72,8.208-11.592
										c1.728-4.872,2.04-10.032,0.888-14.184c-0.552-2.016-1.992-5.568-5.256-6.72c-3.264-1.152-6.6,0.72-8.304,1.944
										C310.522,272,307.546,276.224,305.818,281.096L305.818,281.096z"/>
								</g>
							</g>
							<g>
								<g>
									<path style="fill-rule:evenodd;clip-rule:evenodd;fill:#212121;" d="M270.442,274.64c-2.016,0-3.984-0.336-5.856-0.984
										c-5.904-2.088-10.416-7.32-12.384-14.352c-1.776-6.408-1.368-13.872,1.128-20.976c2.52-7.104,6.864-13.152,12.288-17.016
										c5.928-4.248,12.744-5.496,18.648-3.408c5.904,2.088,10.416,7.32,12.384,14.352c1.776,6.408,1.368,13.872-1.128,20.976
										c-2.52,7.104-6.864,13.152-12.288,17.016C279.178,273.152,274.738,274.64,270.442,274.64L270.442,274.64z M263.986,242.096
										c-1.728,4.872-2.04,10.032-0.888,14.184c0.552,2.016,1.992,5.568,5.256,6.72s6.6-0.72,8.304-1.944
										c3.504-2.496,6.48-6.72,8.208-11.592c1.728-4.872,2.04-10.032,0.888-14.184c-0.552-2.016-1.992-5.568-5.256-6.72
										c-3.264-1.152-6.6,0.72-8.304,1.944C268.69,233,265.714,237.224,263.986,242.096L263.986,242.096z"/>
								</g>
							</g>
						</g>
					</g>
				</g>
				<g>
					<g>
						<path style="fill-rule:evenodd;clip-rule:evenodd;fill:#212121;" d="M424.906,181.664H67.595c-2.04,0-3.936-1.104-4.944-2.904
							s-0.96-3.984,0.12-5.736l64.608-104.64c1.032-1.68,2.856-2.688,4.824-2.688h224.544c1.92,0,3.696,0.96,4.728,2.568
							l68.184,104.64c1.128,1.728,1.224,3.96,0.24,5.784C428.914,180.512,426.994,181.664,424.906,181.664L424.906,181.664z
							 M77.723,170.36h336.743L353.65,77.048H135.347L77.723,170.36z"/>
					</g>
				</g>
				<g>
					<g>
						<path style="fill-rule:evenodd;clip-rule:evenodd;fill:#212121;" d="M305.794,129.344H186.706
							c-3.12,0-5.664-2.544-5.664-5.664c0-3.12,2.544-5.664,5.664-5.664l119.112,0c3.12,0,5.664,2.544,5.664,5.664
							C311.458,126.824,308.938,129.344,305.794,129.344z"/>
					</g>
				</g>
			</g>
		</g>
	</g>
</g>
</svg>
